<svg width="35" height="35" viewBox="0 0 35 35" fill="none" xmlns="http://www.w3.org/2000/svg">
<g clip-path="url(#clip0_28_7619)">
<path d="M17.9558 9.36743L27.5983 26.0699M27.0933 25.1924L3.31828 30.7149L1.80078 28.0749L18.4683 10.2449" stroke="white" stroke-width="2" stroke-linecap="round" stroke-linejoin="round"/>
<path d="M8.49113 29.5125L9.80113 31.78C10.2762 32.5939 11.0551 33.1857 11.9666 33.4253C12.4178 33.5439 12.8881 33.5725 13.3504 33.5094C13.8128 33.4463 14.2581 33.2928 14.6611 33.0575C15.0641 32.8223 15.4168 32.51 15.6991 32.1384C15.9814 31.7669 16.1878 31.3434 16.3064 30.8921C16.425 30.4408 16.4536 29.9706 16.3905 29.5082C16.3274 29.0459 16.1739 28.6005 15.9386 28.1975L15.7286 27.835M18.6111 4.59252V1.45752M30.6186 16.6H33.7511M3.47363 16.6H6.60613M7.90363 5.89252L10.1186 8.11002M27.1011 8.11002L29.3161 5.89252" stroke="white" stroke-width="2" stroke-linecap="round" stroke-linejoin="round"/>
</g>
<defs>
<clipPath id="clip0_28_7619">
<rect width="35" height="35" fill="white" transform="translate(0.000976562)"/>
</clipPath>
</defs>
</svg>
