<svg width="35" height="35" viewBox="0 0 35 35" fill="none" xmlns="http://www.w3.org/2000/svg">
<path d="M18.9596 16.9167V11.6667C18.9596 11.2536 18.8196 10.9074 18.5396 10.6284C18.2596 10.3494 17.9135 10.2094 17.5013 10.2084C17.0891 10.2074 16.743 10.3474 16.463 10.6284C16.183 10.9094 16.043 11.2555 16.043 11.6667V17.4636C16.043 17.6581 16.0794 17.8467 16.1523 18.0295C16.2253 18.2122 16.3346 18.3761 16.4805 18.5209L21.293 23.3334C21.5603 23.6008 21.9006 23.7345 22.3138 23.7345C22.727 23.7345 23.0673 23.6008 23.3346 23.3334C23.602 23.0661 23.7357 22.7258 23.7357 22.3126C23.7357 21.8994 23.602 21.5591 23.3346 21.2917L18.9596 16.9167ZM17.5013 32.0834C15.4839 32.0834 13.5881 31.7004 11.8138 30.9342C10.0395 30.1681 8.4961 29.1293 7.1836 27.8178C5.8711 26.5063 4.83228 24.9629 4.06714 23.1876C3.302 21.4123 2.91894 19.5165 2.91797 17.5001C2.917 15.4837 3.30005 13.5879 4.06714 11.8126C4.83422 10.0373 5.87304 8.4939 7.1836 7.18237C8.49415 5.87085 10.0376 4.83203 11.8138 4.06591C13.5901 3.2998 15.4859 2.91675 17.5013 2.91675C19.5167 2.91675 21.4126 3.2998 23.1888 4.06591C24.9651 4.83203 26.5085 5.87085 27.819 7.18237C29.1296 8.4939 30.1689 10.0373 30.9369 11.8126C31.705 13.5879 32.0876 15.4837 32.0846 17.5001C32.0817 19.5165 31.6987 21.4123 30.9355 23.1876C30.1723 24.9629 29.1335 26.5063 27.819 27.8178C26.5046 29.1293 24.9612 30.1686 23.1888 30.9357C21.4164 31.7028 19.5206 32.0854 17.5013 32.0834ZM17.5013 29.1667C20.7339 29.1667 23.4868 28.0307 25.7598 25.7586C28.0329 23.4865 29.1689 20.7337 29.168 17.5001C29.167 14.2665 28.031 11.5136 25.7598 9.24154C23.4887 6.96946 20.7359 5.83341 17.5013 5.83341C14.2667 5.83341 11.5139 6.96994 9.24276 9.243C6.97165 11.5161 5.83561 14.2684 5.83464 17.5001C5.83366 20.7317 6.97019 23.4846 9.24422 25.7586C11.5182 28.0327 14.2706 29.1687 17.5013 29.1667Z" fill="white"/>
</svg>
