<svg width="35" height="35" viewBox="0 0 35 35" fill="none" xmlns="http://www.w3.org/2000/svg">
<path d="M31.3993 21.1017L28.4385 18.1409V14.2188C28.4351 11.5083 27.4268 8.8953 25.6085 6.88514C23.7903 4.87497 21.2913 3.61039 18.5947 3.33594V1.09375H16.4072V3.33594C13.7107 3.61039 11.2117 4.87497 9.39341 6.88514C7.57517 8.8953 6.56687 11.5083 6.56348 14.2188V18.1409L3.6027 21.1017C3.39756 21.3068 3.28229 21.5849 3.28223 21.875V25.1562C3.28223 25.4463 3.39746 25.7245 3.60258 25.9296C3.8077 26.1348 4.0859 26.25 4.37598 26.25H12.0322V27.0998C12.0079 28.4875 12.4969 29.8354 13.4052 30.8848C14.3135 31.9342 15.5773 32.6113 16.9541 32.7862C17.7145 32.8617 18.4822 32.7771 19.2079 32.538C19.9336 32.2989 20.6012 31.9105 21.1678 31.3979C21.7344 30.8853 22.1874 30.2597 22.4978 29.5615C22.8081 28.8633 22.9689 28.1078 22.9697 27.3438V26.25H30.626C30.9161 26.25 31.1943 26.1348 31.3994 25.9296C31.6045 25.7245 31.7197 25.4463 31.7197 25.1562V21.875C31.7197 21.5849 31.6044 21.3068 31.3993 21.1017ZM20.7822 27.3438C20.7822 28.214 20.4365 29.0486 19.8212 29.6639C19.2058 30.2793 18.3712 30.625 17.501 30.625C16.6307 30.625 15.7961 30.2793 15.1808 29.6639C14.5654 29.0486 14.2197 28.214 14.2197 27.3438V26.25H20.7822V27.3438ZM29.5322 24.0625H5.46973V22.3278L8.43051 19.367C8.63564 19.162 8.75091 18.8838 8.75098 18.5938V14.2188C8.75098 11.8981 9.67285 9.67251 11.3138 8.03157C12.9547 6.39062 15.1803 5.46875 17.501 5.46875C19.8216 5.46875 22.0472 6.39062 23.6882 8.03157C25.3291 9.67251 26.251 11.8981 26.251 14.2188V18.5938C26.251 18.8838 26.3663 19.162 26.5714 19.367L29.5322 22.3278V24.0625Z" fill="white"/>
</svg>
